# xmcd
#
# Track frame offsets: 
#        150
#        14250
#        28280
#        42605
#        55930
#        67662
#        81010
#        94662
#        109350
#        123587
#
# Disc length: 1843 seconds
#
# Revision: 0
# Processed by: cddbd v1.5PL3 Copyright (c) Steve Scherf et al.
# Submitted via: ExactAudioCopy v0.90b4
#
DISCID=8307310a
DTITLE=Billie Holiday - Singin' the Blues
DYEAR=2002
DGENRE=Blues
TTITLE0=Good Morning, Heartache
TTITLE1=No Good Man
TTITLE2=Baby, I Don't Cry Over You
TTITLE3=I Loves You, Porgy
TTITLE4=You Better Go Now
TTITLE5=Somebody's on My Mind
TTITLE6=The Blues Are Brewin'
TTITLE7=Baby, Get Lost
TTITLE8=God Bless the Child
TTITLE9=Now or Never
EXTD=
EXTT0=
EXTT1=
EXTT2=
EXTT3=
EXTT4=
EXTT5=
EXTT6=
EXTT7=
EXTT8=
EXTT9=
PLAYORDER=
